<?xml version="1.0" encoding="utf-8"?>
<!-- Generator: Adobe Illustrator 23.0.3, SVG Export Plug-In . SVG Version: 6.00 Build 0)  -->
<svg version="1.1" id="Capa_1" xmlns="http://www.w3.org/2000/svg" xmlns:xlink="http://www.w3.org/1999/xlink" x="0px" y="0px"
	 viewBox="0 0 512 512" style="enable-background:new 0 0 512 512;" xml:space="preserve">
<style type="text/css">
	.st0{fill:url(#SVGID_1_);}
	.st1{fill:url(#SVGID_2_);}
	.st2{fill:url(#SVGID_3_);}
	.st3{fill:url(#SVGID_4_);}
	.st4{fill:url(#SVGID_5_);}
	.st5{fill:url(#SVGID_6_);}
	.st6{fill:url(#SVGID_7_);}
	.st7{fill:url(#SVGID_8_);}
	.st8{fill:url(#SVGID_9_);}
	.st9{fill:url(#SVGID_10_);}
	.st10{fill:url(#SVGID_11_);}
	.st11{fill:url(#SVGID_12_);}
	.st12{fill:url(#SVGID_13_);}
	.st13{fill:url(#SVGID_14_);}
	.st14{fill:url(#SVGID_15_);}
	.st15{fill:url(#SVGID_16_);}
	.st16{fill:url(#SVGID_17_);}
	.st17{fill:url(#SVGID_18_);}
	.st18{fill:url(#SVGID_19_);}
	.st19{fill:url(#SVGID_20_);}
	.st20{fill:url(#SVGID_21_);}
	.st21{fill:url(#SVGID_22_);}
	.st22{fill:url(#SVGID_23_);}
	.st23{fill:url(#SVGID_24_);}
	.st24{fill:url(#SVGID_25_);}
	.st25{fill:#42D698;}
	.st26{fill:#F662B0;}
	.st27{fill:#7E71F5;}
	.st28{fill:#2CC9D0;}
	.st29{fill:#FF8B62;}
	.st30{fill:#323433;}
	.st31{fill:url(#SVGID_26_);}
</style>
<linearGradient id="SVGID_1_" gradientUnits="userSpaceOnUse" x1="80.133" y1="256.0025" x2="431.872" y2="256.0025">
	<stop  offset="0" style="stop-color:#0A8E1C"/>
	<stop  offset="1" style="stop-color:#83E553"/>
</linearGradient>
<path class="st0" d="M207.5,292.4c-38.6,0-72.6,0-106.6,0c-15.3,0-20.6-5.2-20.8-20.5c-0.1-9.9-0.1-19.9-0.1-29.8
	c0-17.3,4.5-21.9,21.5-21.9c49.3,0,98.6,0.1,147.8-0.1c19.5-0.1,38.9-1.2,58.4-1.3c8.5,0,10.7-2.8,8.2-11
	c-2.8-9.1-4.4-18.5-6.4-27.9c-0.6-2.9-2.1-6.1,1.4-8.3c3.1-2,5.1,0.7,7.1,2.1c36.6,25.7,73,51.5,109.5,77.1c6,4.2,5.1,7.3-0.3,11.1
	c-36.3,25.4-72.4,50.9-108.7,76.4c-2.4,1.7-4.8,4.6-8.1,2.2c-3.1-2.3-1.4-5.6-0.8-8.4c1.9-8.9,3.5-18,6.2-26.8
	c2.6-8.6,0.4-11.1-8.7-11.5C272.5,291.8,237.7,292.7,207.5,292.4z"/>
</svg>
