<?xml version="1.0" encoding="utf-8"?>
<!-- Generator: Adobe Illustrator 23.0.3, SVG Export Plug-In . SVG Version: 6.00 Build 0)  -->
<svg version="1.1" id="Capa_1" xmlns="http://www.w3.org/2000/svg" xmlns:xlink="http://www.w3.org/1999/xlink" x="0px" y="0px"
	 viewBox="0 0 512 512" style="enable-background:new 0 0 512 512;" xml:space="preserve">
<style type="text/css">
	.st0{fill:url(#SVGID_1_);}
	.st1{fill:url(#SVGID_2_);}
	.st2{fill:url(#SVGID_3_);}
	.st3{fill:url(#SVGID_4_);}
	.st4{fill:url(#SVGID_5_);}
	.st5{fill:url(#SVGID_6_);}
	.st6{fill:url(#SVGID_7_);}
	.st7{fill:url(#SVGID_8_);}
	.st8{fill:url(#SVGID_9_);}
	.st9{fill:url(#SVGID_10_);}
	.st10{fill:url(#SVGID_11_);}
	.st11{fill:url(#SVGID_12_);}
	.st12{fill:url(#SVGID_13_);}
	.st13{fill:url(#SVGID_14_);}
	.st14{fill:url(#SVGID_15_);}
	.st15{fill:url(#SVGID_16_);}
	.st16{fill:url(#SVGID_17_);}
	.st17{fill:url(#SVGID_18_);}
	.st18{fill:url(#SVGID_19_);}
	.st19{fill:url(#SVGID_20_);}
	.st20{fill:url(#SVGID_21_);}
	.st21{fill:url(#SVGID_22_);}
	.st22{fill:url(#SVGID_23_);}
	.st23{fill:url(#SVGID_24_);}
	.st24{fill:url(#SVGID_25_);}
	.st25{fill:#42D698;}
	.st26{fill:#F662B0;}
	.st27{fill:#7E71F5;}
	.st28{fill:#2CC9D0;}
	.st29{fill:#FF8B62;}
	.st30{fill:#323433;}
	.st31{fill:url(#SVGID_26_);}
</style>
<linearGradient id="SVGID_1_" gradientUnits="userSpaceOnUse" x1="80.2849" y1="256.0025" x2="431.7201" y2="256.0025">
	<stop  offset="0" style="stop-color:#0A8E1C"/>
	<stop  offset="1" style="stop-color:#83E553"/>
</linearGradient>
<path class="st0" d="M297.5,220.1c46.5,0,80.4-0.1,114.4,0c15,0,19.6,4.9,19.7,20c0.1,10.3,0.1,20.6,0,30.9
	c-0.1,16.3-4.9,21.3-21,21.3c-51.6,0.1-103.1-0.1-154.7,0.1c-17.6,0.1-35.1,1.2-52.7,1.3c-7.6,0-9.2,3.1-7.6,9.9
	c2.5,10,4.6,20.1,6.8,30.1c0.6,2.6,1.4,5.5-1.8,7.1c-2.5,1.2-4.4-0.5-6.2-1.7c-36.8-25.9-73.6-51.9-110.5-77.8
	c-5.4-3.8-4.7-7,0.3-10.5c36.8-25.9,73.6-51.9,110.5-77.7c1.8-1.2,3.8-3.2,6.2-1.6c2.8,1.8,2,4.7,1.5,7.3c-2.1,9.7-4.1,19.4-6.6,29
	c-2.1,8,0.2,10.8,8.7,11.1C239.7,220,274.9,220.3,297.5,220.1z"/>
</svg>
